<?xml version="1.0" standalone="no"?>
<!DOCTYPE svg PUBLIC "-//W3C//DTD SVG 20010904//EN"
 "http://www.w3.org/TR/2001/REC-SVG-20010904/DTD/svg10.dtd">
<svg version="1.0" xmlns="http://www.w3.org/2000/svg"
 width="512.000000pt" height="512.000000pt" viewBox="0 0 512.000000 512.000000"
 preserveAspectRatio="xMidYMid meet">

<g transform="translate(0.000000,512.000000) scale(0.100000,-0.100000)"
fill="#000000" stroke="none">
<path d="M1649 5105 c-159 -58 -413 -202 -584 -330 -566 -425 -927 -1030
-1037 -1740 -31 -201 -31 -569 0 -770 96 -619 379 -1153 832 -1568 391 -360
863 -585 1405 -669 201 -31 569 -31 770 0 155 24 329 66 466 112 688 230 1270
758 1565 1418 60 136 66 183 30 254 -32 64 -72 97 -139 115 -59 15 -61 15
-247 -48 -151 -51 -323 -90 -470 -109 -124 -15 -411 -12 -547 5 -484 62 -932
284 -1283 635 -191 191 -320 373 -436 615 -149 312 -214 603 -214 963 0 270
40 500 129 750 46 130 53 166 42 215 -29 123 -164 196 -282 152z m-279 -657
c-1 -7 -7 -53 -15 -103 -35 -215 -30 -557 11 -805 123 -743 573 -1409 1229
-1819 401 -251 899 -391 1389 -391 128 0 361 19 444 36 17 4 32 3 32 0 0 -20
-138 -185 -240 -287 -178 -180 -351 -306 -565 -412 -316 -156 -590 -225 -941
-234 -381 -11 -697 56 -1029 216 -243 117 -413 238 -606 430 -329 329 -537
729 -620 1196 -27 151 -37 456 -20 606 49 425 211 825 468 1153 75 95 269 287
368 363 84 65 95 71 95 51z"/>
</g>
</svg>
