<?xml version="1.0" standalone="no"?>
<!DOCTYPE svg PUBLIC "-//W3C//DTD SVG 20010904//EN"
 "http://www.w3.org/TR/2001/REC-SVG-20010904/DTD/svg10.dtd">
<svg version="1.0" xmlns="http://www.w3.org/2000/svg"
 width="512.000000pt" height="512.000000pt" viewBox="0 0 512.000000 512.000000"
 preserveAspectRatio="xMidYMid meet">

<g transform="translate(0.000000,512.000000) scale(0.100000,-0.100000)"
fill="#000000" stroke="none">
<path d="M2486 5105 c-50 -18 -102 -68 -121 -120 -13 -34 -15 -85 -13 -310 l3
-270 27 -38 c14 -22 43 -51 65 -65 33 -23 48 -27 113 -27 65 0 80 4 113 27 22
14 51 43 65 65 l27 38 3 270 c3 306 0 328 -68 389 -60 54 -137 69 -214 41z"/>
<path d="M815 4411 c-112 -52 -155 -177 -100 -287 32 -64 344 -376 400 -400
80 -33 187 -12 241 48 56 60 72 156 40 233 -24 56 -336 368 -400 400 -60 30
-124 32 -181 6z"/>
<path d="M4124 4405 c-64 -32 -376 -344 -400 -400 -32 -77 -16 -173 40 -233
54 -60 161 -81 241 -48 56 24 368 336 400 400 92 184 -97 373 -281 281z"/>
<path d="M2438 3939 c-665 -55 -1203 -597 -1257 -1267 -61 -762 506 -1430
1267 -1491 762 -61 1430 506 1491 1267 55 680 -391 1296 -1054 1457 -79 20
-320 50 -345 43 -3 0 -49 -4 -102 -9z m305 -440 c193 -39 354 -125 493 -263
138 -139 224 -300 263 -493 27 -128 27 -238 0 -366 -39 -193 -125 -354 -263
-493 -139 -138 -300 -224 -493 -263 -128 -27 -238 -27 -366 0 -193 39 -354
125 -493 263 -138 139 -224 300 -263 493 -27 128 -27 238 0 366 39 193 125
354 263 493 230 229 548 327 859 263z"/>
<path d="M125 2752 c-130 -60 -164 -226 -69 -332 61 -68 83 -71 389 -68 l270
3 38 27 c22 14 51 43 65 65 23 33 27 48 27 113 0 65 -4 80 -27 113 -14 22 -43
51 -65 65 l-38 27 -275 3 c-249 2 -279 0 -315 -16z"/>
<path d="M4392 2753 c-83 -41 -126 -115 -120 -207 4 -71 34 -123 95 -164 l38
-27 270 -3 c306 -3 328 0 389 68 72 80 74 196 3 277 -61 69 -79 73 -377 73
-226 0 -270 -3 -298 -17z"/>
<path d="M1161 1408 c-63 -11 -96 -37 -273 -215 -105 -106 -164 -173 -177
-203 -83 -183 105 -365 285 -275 64 32 376 344 400 400 8 21 15 62 15 91 0
134 -114 226 -250 202z"/>
<path d="M3880 1410 c-134 -24 -209 -167 -156 -295 24 -56 336 -368 400 -400
180 -90 368 92 285 275 -21 46 -299 337 -369 385 -42 29 -110 44 -160 35z"/>
<path d="M2472 834 c-44 -23 -85 -64 -106 -107 -14 -30 -16 -74 -16 -299 0
-296 4 -314 73 -375 81 -71 197 -69 277 3 68 61 71 83 68 389 l-3 270 -27 38
c-43 63 -92 91 -168 95 -46 2 -75 -2 -98 -14z"/>
</g>
</svg>
